<?xml version="1.0" encoding="UTF-8" standalone="no"?>
<!-- Created with Inkscape (http://www.inkscape.org/) -->

<svg
   width="136.94897mm"
   height="136.94888mm"
   viewBox="0 0 136.94897 136.94888"
   version="1.1"
   id="svg5"
   xml:space="preserve"
   xmlns="http://www.w3.org/2000/svg"
   xmlns:svg="http://www.w3.org/2000/svg"><defs
     id="defs2" /><g
     id="layer1"
     transform="translate(-3047.4554,-180.35348)"><g
       id="g40728"><rect
         style="fill:#fcfcfb;fill-opacity:1;stroke:none;stroke-width:0.499999;stroke-linecap:round;stroke-linejoin:round;stroke-dasharray:none;stroke-opacity:1;stop-color:#000000"
         id="rect40685"
         width="136.94891"
         height="136.94891"
         x="3047.4553"
         y="180.35347"
         ry="21.515202"
         rx="0" /><path
         style="fill:#746d62;fill-opacity:1;stroke:none;stroke-width:0.499999;stroke-linecap:round;stroke-linejoin:round;stroke-dasharray:none;stroke-opacity:1;stop-color:#000000"
         d="m 3102.7493,291.27315 c -2.5797,0.23151 -5.2255,0.49609 -7.3201,0.78271 -2.0947,0.28662 -3.6382,0.59532 -4.5643,0.83786 -0.9261,0.24254 -1.2346,0.41884 -1.3891,0.74976 -0.1544,0.33092 -0.1544,0.81598 0.4963,1.32306 0.6506,0.50709 1.9513,1.03616 3.9688,1.53225 2.0176,0.49608 4.7515,0.95908 8.0919,1.31184 3.3404,0.35276 7.2869,0.59528 11.2889,0.68346 4.0019,0.0882 8.0588,0.022 11.9062,-0.18742 3.8474,-0.20947 7.4855,-0.56226 10.0761,-0.83786 2.5907,-0.27561 4.1343,-0.47407 5.5121,-0.92606 1.3779,-0.452 2.5907,-1.15761 3.241,-1.68658 0.6503,-0.52898 0.7386,-0.88189 -0.055,-1.30083 -0.7935,-0.41894 -2.4693,-0.90407 -4.586,-1.34506 -2.1167,-0.44098 -4.6742,-0.83783 -9.5912,-1.09142 -4.917,-0.25358 -12.1928,-0.36382 -17.0876,-0.31974 -4.8948,0.0441 -7.4083,0.24252 -9.988,0.47403 z"
         id="path40687" /><path
         style="fill:#524643;fill-opacity:1;stroke:none;stroke-width:0.5;stroke-linecap:round;stroke-linejoin:round;stroke-dasharray:none;stroke-opacity:1;stop-color:#000000"
         d="m 3178.4082,247.23026 c -1.4273,9.79605 -5.6884,19.19054 -12.27,26.58527 -6.7397,7.57233 -15.7844,12.94232 -25.4842,15.88824 -8.4244,2.55859 -17.311,3.33972 -26.1133,3.14619 -8.0866,-0.1778 -16.1998,-1.17709 -23.9112,-3.61811 -9.7178,-3.07614 -18.7838,-8.52142 -25.4841,-16.20287 -5.9373,-6.80669 -9.9226,-15.3031 -11.3263,-24.22563 -0.7437,-4.72744 -0.7752,-9.55177 -0.3146,-14.31514 0.172,-1.77883 0.4226,-3.58679 1.2027,-5.19467 0.7714,-1.58995 2.0305,-2.90755 3.4614,-3.94466 1.4308,-1.03711 3.0346,-1.81035 4.6587,-2.50694 8.0326,-3.44525 16.7068,-5.12068 25.3615,-6.34037 3.087,-0.43504 6.1819,-0.8152 9.2838,-1.12645 15.9652,-1.60192 32.1501,-1.36635 47.9793,1.25848 4.5465,0.75391 9.0602,1.70368 13.5286,2.83157 4.3065,1.08701 8.6454,2.37295 12.3537,4.81759 2.7752,1.82949 5.5078,3.44386 7.0712,7.6772 0.5421,3.489 0.7387,10.21951 0,15.2703 z"
         id="path40689" /><path
         style="fill:#524643;fill-opacity:1;stroke:none;stroke-width:0.499999;stroke-linecap:round;stroke-linejoin:round;stroke-dasharray:none;stroke-opacity:1;stop-color:#000000"
         d="m 3053.4914,238.94544 c 0.066,1.78298 0.1966,5.34865 0.6949,8.94062 0.4982,3.59197 1.3634,7.21 2.7793,10.89371 1.4158,3.6837 3.3821,7.43277 6.2662,11.1689 2.8841,3.73612 6.6857,7.45896 10.7103,10.48716 4.0246,3.02819 8.2719,5.36159 12.7158,7.15749 4.444,1.7959 9.0845,3.05433 13.712,3.86709 4.6276,0.81276 9.2419,1.17981 13.7909,1.28467 4.549,0.10487 9.0321,-0.0524 12.6371,-0.35396 3.6051,-0.30153 6.3317,-0.74722 9.5827,-1.55999 3.251,-0.81277 7.0263,-1.99255 11.0247,-3.82787 3.9983,-1.83533 8.2195,-4.3261 12.2832,-7.68205 4.0638,-3.35595 7.9702,-7.57691 10.9067,-12.0471 2.9365,-4.47019 4.9028,-9.18935 6.1351,-13.20073 1.2323,-4.01137 1.7304,-7.31482 1.9139,-10.5921 0.1835,-3.27729 0.052,-6.52829 -0.1574,-8.82237 -0.2097,-2.29409 -0.4981,-3.6312 -1.4287,-5.15187 -0.9307,-1.52066 -2.5038,-3.22491 -5.0731,-4.83739 -2.5693,-1.61248 -6.135,-3.13309 -9.7531,-4.29985 -3.6182,-1.16675 -7.2888,-1.97952 -11.3001,-2.70053 -4.0114,-0.721 -8.3638,-1.35026 -16.9765,-1.67801 -8.6127,-0.32775 -21.4857,-0.35399 -28.7088,-0.3671 -7.2232,-0.0131 -8.7961,-0.0131 -11.418,0.1704 -2.6219,0.18351 -6.2925,0.55057 -10.7103,1.36333 -4.4178,0.81276 -9.5827,2.07122 -13.7121,3.44768 -4.1294,1.37645 -7.2231,2.8709 -9.5042,4.41778 -2.281,1.54689 -3.7493,3.14615 -4.6669,4.49651 -0.9177,1.35036 -1.2847,2.45152 -1.4944,3.68383 -0.2097,1.23231 -0.2622,2.59564 -0.2885,3.27719 -0.026,0.68154 -0.026,0.68158 0.039,2.46456 z"
         id="path40691" /><path
         id="path40693"
         style="fill:#d37753;fill-opacity:1;stroke:none;stroke-width:0.499999;stroke-linecap:round;stroke-linejoin:round;stroke-dasharray:none;stroke-opacity:1;stop-color:#000000"
         d="m 3175.3404,237.41367 c 0.037,1.14969 0.075,2.29909 0.065,3.38363 -0.01,1.08455 -0.065,2.10416 -0.2874,3.89317 -0.2224,1.78902 -0.6117,4.34739 -1.2514,6.82236 -0.6396,2.47497 -1.5294,4.86644 -2.5306,7.14671 -1.0011,2.28027 -2.1135,4.44926 -3.745,6.82228 -1.6314,2.37301 -3.782,4.94994 -5.9325,7.10045 -2.1505,2.1505 -4.301,3.87466 -6.8501,5.60805 -2.5491,1.73339 -5.4966,3.47597 -8.7038,4.89423 -3.2072,1.41827 -6.6741,2.51211 -10.8176,3.51324 -4.1435,1.00113 -8.9637,1.90955 -12.931,2.37304 -3.9674,0.46349 -7.0818,0.48202 -10.9009,0.1576 -3.8192,-0.32442 -8.3425,-0.9918 -12.6158,-1.96509 -4.2732,-0.97328 -8.2962,-2.25248 -12.2265,-3.95802 -3.9303,-1.70554 -7.7678,-3.83748 -11.1235,-6.24758 -3.3556,-2.4101 -6.2291,-5.09816 -8.3982,-7.64731 -2.1692,-2.54916 -3.6337,-4.95919 -4.9685,-7.66591 -1.3349,-2.70673 -2.5399,-5.70994 -3.4206,-8.88016 -0.8807,-3.17023 -1.4369,-6.5072 -1.6686,-9.04711 -0.2313,-2.53991 -0.139,-4.28261 -0.043,-6.02339 1.5894,0.87406 3.1478,1.58591 5.455,2.5494 2.3072,0.96348 5.3353,2.01875 8.7306,2.95604 3.3952,0.93728 7.1576,1.7566 11.1017,2.45045 3.9441,0.69384 8.0701,1.26226 13.016,1.65769 4.9458,0.39542 10.7113,0.61788 16.5049,0.7013 5.7936,0.0834 11.6147,0.0278 17.4175,-0.2781 5.8028,-0.30591 11.5869,-0.86208 17.2413,-1.73343 5.6543,-0.87135 11.1788,-2.05782 15.276,-3.15164 4.0972,-1.09382 6.8161,-1.98187 8.8368,-2.89027 1.6932,-0.77067 3.3812,-1.71806 4.7702,-2.54163 z" /><path
         id="path40695"
         style="fill:#bf5e4a;fill-opacity:1;stroke:none;stroke-width:0.499999;stroke-linecap:round;stroke-linejoin:round;stroke-dasharray:none;stroke-opacity:1;stop-color:#000000"
         d="m 3171.1428,259.09116 c -7.2415,2.37511 -14.7252,3.97229 -22.2239,5.35988 -10.1394,1.87624 -20.3818,3.3886 -30.6917,3.57188 -9.2828,0.16501 -18.548,-0.74824 -27.7813,-1.7198 -8.2043,-0.86329 -16.4634,-1.7856 -24.3416,-4.23333 -1.5349,-0.47689 -3.0498,-1.01637 -4.545,-1.6061 0.1851,0.39884 0.3724,0.79371 0.5633,1.1808 1.3348,2.70673 2.7995,5.11653 4.9687,7.66569 2.1691,2.54915 5.0423,5.23749 8.3979,7.64759 3.3557,2.4101 7.1931,4.54214 11.1234,6.24768 3.9303,1.70554 7.9534,2.98462 12.2266,3.9579 4.2733,0.97329 8.7966,1.64083 12.6158,1.96525 3.8191,0.32442 6.9338,0.30588 10.9011,-0.15761 3.9673,-0.46349 8.7875,-1.37185 12.931,-2.37298 4.1435,-1.00113 7.6103,-2.09522 10.8175,-3.51348 3.2072,-1.41826 6.1547,-3.16089 8.7038,-4.89428 2.5491,-1.73339 4.6998,-3.45743 6.8503,-5.60793 2.1505,-2.1505 4.301,-4.72732 5.9324,-7.10033 1.5281,-2.22256 2.5994,-4.26716 3.5517,-6.39083 z" /><path
         style="fill:#e5dac5;fill-opacity:1;stroke:none;stroke-width:0.499999;stroke-linecap:round;stroke-linejoin:round;stroke-dasharray:none;stroke-opacity:1;stop-color:#000000"
         d="m 3079.0899,236.38353 c 2.2295,0.35859 6.6885,1.07577 12.5508,1.65263 5.8622,0.57686 13.1271,1.01338 20.4549,1.23165 7.3277,0.21827 14.7176,0.21827 20.533,0.0624 5.8154,-0.15592 10.0559,-0.46773 14.7175,-1.09138 4.6616,-0.62364 9.7443,-1.55911 12.3011,-2.08911 2.5567,-0.53 2.588,-0.65465 2.3387,-0.74827 -0.2493,-0.0936 -0.7793,-0.15597 -0.9198,-0.32746 -0.1404,-0.17149 0.1091,-0.45212 0.3741,-0.70156 0.265,-0.24944 0.5457,-0.46775 0.3276,-0.84187 -0.2182,-0.37413 -0.9353,-0.90412 -1.3874,-1.26269 -0.4522,-0.35857 -0.6393,-0.54567 -0.8888,-1.10693 -0.2496,-0.56125 -0.5614,-1.49664 -1.2005,-2.32297 -0.6391,-0.82634 -1.6058,-1.5436 -2.7596,-2.46346 -1.1537,-0.91987 -2.4944,-2.04228 -3.2273,-3.0089 -0.733,-0.96662 -0.8577,-1.77735 -0.9401,-2.25143 -0.082,-0.47409 -0.1226,-0.61148 -1.1128,-1.18746 -0.9902,-0.57597 -2.9304,-1.59016 -4.066,-2.30114 -1.1355,-0.71098 -1.4662,-1.1189 -2.5245,-2.23787 -1.0584,-1.11897 -2.8443,-2.94903 -4.3104,-4.16723 -1.4662,-1.2182 -2.6129,-1.82465 -3.7374,-2.10032 -1.1245,-0.27568 -2.2268,-0.22056 -3.2136,-0.0772 -0.9868,0.14331 -1.8575,0.37477 -2.745,0.27565 -0.8874,-0.0991 -1.7913,-0.529 -2.4363,-1.22346 -0.6451,-0.69447 -1.031,-1.65363 -1.3782,-2.16638 -0.3472,-0.51274 -0.6557,-0.57885 -2.2213,-0.2537 -1.5656,0.32516 -4.3877,1.04171 -6.2728,1.51576 -1.8852,0.47405 -2.8335,0.7056 -3.3847,0.893 -0.5512,0.1874 -0.7056,0.33079 -0.9094,0.41894 -0.2037,0.0882 -0.4575,0.12125 -0.6835,0.006 -0.2259,-0.11561 -0.4243,-0.38018 -1.2787,-0.68896 -0.8543,-0.30879 -2.3648,-0.6616 -3.2082,-0.76635 -0.8435,-0.10476 -1.0198,0.0385 -2.0286,0.98665 -1.0089,0.94819 -2.8498,2.70096 -4.4704,4.11759 -1.6206,1.41663 -3.0206,2.49692 -4.1396,3.52226 -1.119,1.02533 -1.9568,1.99537 -2.982,2.91587 -1.0253,0.92049 -2.238,1.79147 -2.894,2.44202 -0.6559,0.65055 -0.7551,1.08049 -1.0803,1.68674 -0.3253,0.60625 -0.8765,1.38904 -1.593,2.10003 -0.7165,0.71099 -1.5986,1.35047 -2.5025,1.7804 -0.9039,0.42992 -1.8299,0.6504 -2.3206,0.93166 -0.4907,0.28127 -0.5458,0.62301 -0.7112,1.17971 -0.1654,0.55671 -0.4409,1.32837 -1.1189,2.326 -0.678,0.99764 -1.7584,2.22137 -2.6183,3.0206 -0.8599,0.79923 -1.4991,1.17397 -1.8894,1.4304 -0.3902,0.25644 -0.531,0.3942 -0.6014,0.46309 -0.07,0.0689 -0.071,0.0689 2.1588,0.4275 z"
         id="path40697" /><path
         id="path40699"
         style="fill:#fcfdfb;fill-opacity:1;stroke:none;stroke-width:0.499999;stroke-linecap:round;stroke-linejoin:round;stroke-dasharray:none;stroke-opacity:1;stop-color:#000000"
         d="m 3123.7442,210.44245 c -0.1133,5.1e-4 -0.2631,0.0498 -0.4853,0.14625 -0.5924,0.25712 -1.6993,0.84957 -2.6815,1.30948 -0.9821,0.4599 -1.8399,0.78713 -2.7988,1.31723 -0.9588,0.5301 -2.019,1.26307 -2.9233,1.69964 -0.9043,0.43656 -1.6526,0.57678 -2.2996,0.35863 -0.647,-0.21814 -1.1924,-0.79461 -1.8784,-1.55856 -0.6861,-0.76395 -1.5126,-1.71543 -1.9803,-2.18333 -0.4676,-0.4679 -0.5768,-0.45181 -1.3642,0.49144 -0.7874,0.94326 -2.2529,2.81373 -4.3109,4.65347 -2.058,1.83974 -4.7085,3.64863 -6.6807,4.88807 -1.9722,1.23944 -3.2662,1.90955 -3.96,2.26033 -0.6937,0.35078 -0.7867,0.38216 -0.7322,0.66301 0.054,0.28084 0.2568,0.8108 0.3736,1.45779 0.1168,0.64699 0.148,1.41077 -0.062,2.24482 -0.2106,0.83405 -0.663,1.73848 -1.8635,2.8298 -1.2004,1.09133 -3.1487,2.36927 -5.1366,3.29696 -1.9879,0.92769 -4.0147,1.50473 -5.0281,1.79317 -0.4937,0.14051 -0.7415,0.21173 -0.8811,0.26665 0.017,0.003 0.022,0.003 0.039,0.006 2.2295,0.3586 6.6883,1.07576 12.5506,1.65262 5.8622,0.57685 13.1273,1.01318 20.4551,1.23145 7.3277,0.21826 14.7172,0.21844 20.5326,0.0625 5.8154,-0.15592 10.0564,-0.46776 14.718,-1.0914 4.5614,-0.61025 9.4927,-1.51363 12.0995,-2.04897 -0.1015,-0.27144 -0.225,-0.38148 -0.3907,-0.49196 -0.4209,-0.28071 -1.1069,-0.60817 -1.7539,-1.09916 -0.647,-0.49099 -1.255,-1.14584 -2.4867,-2.20607 -1.2317,-1.06022 -3.0869,-2.52579 -4.5134,-3.56257 -1.4265,-1.03679 -2.4246,-1.64457 -3.7812,-2.50993 -1.3565,-0.86535 -3.0707,-1.98764 -4.0374,-2.69699 -0.9667,-0.70935 -1.1852,-1.00557 -1.3023,-1.65261 -0.1171,-0.64704 -0.1328,-1.6452 -0.1328,-2.22209 0,-0.57688 0.015,-0.73275 -0.5767,-1.28622 -0.5922,-0.55347 -1.7927,-1.50433 -2.9698,-2.31511 -1.1772,-0.81078 -2.3307,-1.48144 -3.3053,-1.8557 -0.9745,-0.37426 -1.7696,-0.45186 -2.6194,-0.31936 -0.8499,0.1325 -1.7538,0.47518 -2.6035,0.59996 -0.8497,0.12479 -1.6444,0.0316 -2.2603,-0.28008 -0.616,-0.31171 -1.0528,-0.84166 -1.4738,-1.51205 -0.421,-0.6704 -0.8261,-1.4816 -1.0677,-1.92598 -0.151,-0.27775 -0.2381,-0.4122 -0.4268,-0.41135 z" /><path
         id="path40701"
         style="fill:#524643;fill-opacity:1;stroke:none;stroke-width:0.319173;stroke-linecap:round;stroke-linejoin:round;stroke-dasharray:none;stroke-opacity:1;stop-color:#000000"
         d="m 3138.863,271.19676 c 0.3098,-0.0634 0.929,-0.19002 1.4919,-0.38707 0.563,-0.19706 1.0697,-0.46448 1.4708,-0.76707 0.4011,-0.3026 0.6966,-0.64035 1.0275,-0.87262 0.3308,-0.23227 0.6966,-0.3589 1.0697,-0.34478 0.373,0.0141 0.753,0.16894 1.0767,0.5279 0.3237,0.35897 0.5911,0.92202 0.6966,1.52014 0.1055,0.59813 0.049,1.2315 -0.2252,1.80852 -0.2745,0.57702 -0.7671,1.09771 -1.5341,1.52697 -0.7671,0.42927 -1.8085,0.76702 -2.8641,0.95705 -1.0556,0.19004 -2.1254,0.23227 -3.3146,0.0845 -1.1893,-0.14775 -2.4982,-0.48553 -3.6171,-1.06958 -1.119,-0.58405 -2.0479,-1.41445 -2.6884,-2.34337 -0.6404,-0.92891 -0.9923,-1.95639 -1.1543,-3.03313 -0.162,-1.07674 -0.134,-2.20267 0.049,-3.23017 0.1829,-1.0275 0.5207,-1.95638 1.0977,-2.81498 0.5771,-0.85859 1.3935,-1.6468 2.2309,-2.25906 0.8374,-0.61225 1.6961,-1.04863 2.6391,-1.32306 0.943,-0.27444 1.9705,-0.38703 2.8995,-0.37292 0.929,0.0141 1.7592,0.15482 2.5122,0.4082 0.753,0.25338 1.4287,0.61938 1.9776,1.09796 0.5488,0.47858 0.9711,1.06967 1.2385,1.68193 0.2673,0.61226 0.3799,1.24559 0.3799,1.86486 0,0.61928 -0.1126,1.22447 -0.2534,1.67482 -0.1407,0.45034 -0.3096,0.7459 -0.8655,1.19624 -0.5559,0.45033 -1.499,1.05562 -2.8713,1.73121 -1.3723,0.67558 -3.1737,1.42148 -4.0605,1.82973 -0.8869,0.40825 -0.8588,0.47866 -0.7111,0.57011 0.1478,0.0915 0.4153,0.20408 0.7672,0.2744 0.3518,0.0703 0.7882,0.0984 1.0063,0.11251 0.218,0.0141 0.2189,0.0141 0.5286,-0.0493 z m -2.6461,-4.74315 c 0.957,-0.41519 2.8713,-1.24565 3.8423,-1.71705 0.9711,-0.47141 0.9991,-0.584 0.7176,-0.83735 -0.2814,-0.25335 -0.8726,-0.64747 -1.5693,-0.74607 -0.6967,-0.0986 -1.499,0.0984 -2.1535,0.42217 -0.6546,0.32374 -1.1612,0.77414 -1.4638,1.28087 -0.3026,0.50672 -0.4012,1.06977 -0.4223,1.41455 -0.021,0.34477 0.035,0.47163 0.063,0.53485 0.028,0.0632 0.028,0.0632 0.9856,-0.35197 z m -8.8881,-2.13933 c -0.4996,-0.10555 -1.4988,-0.31665 -2.3715,-0.28854 -0.8728,0.0281 -1.6187,0.29552 -2.2451,0.78819 -0.6264,0.49267 -1.133,1.21047 -1.323,2.03391 -0.19,0.82343 -0.063,1.75235 0.3379,2.42789 0.4011,0.67555 1.0768,1.09785 1.8368,1.30888 0.76,0.21104 1.6045,0.21104 2.4067,0.0703 0.8022,-0.14077 1.5622,-0.42225 2.069,-0.52073 0.5067,-0.0985 0.7601,-0.014 1.0345,0.4646 0.2744,0.47861 0.57,1.35122 0.6966,1.91418 0.1266,0.56295 0.084,0.81624 -0.4011,1.21028 -0.4856,0.39405 -1.4145,0.92887 -2.5264,1.22445 -1.1119,0.29558 -2.4066,0.35187 -3.6734,0.16189 -1.2668,-0.18998 -2.5054,-0.62629 -3.5539,-1.4144 -1.0486,-0.7881 -1.9071,-1.92817 -2.4139,-3.1175 -0.5067,-1.18933 -0.6615,-2.42787 -0.5068,-3.72983 0.1548,-1.30196 0.6193,-2.66718 1.3724,-3.77213 0.753,-1.10495 1.7945,-1.94936 2.9135,-2.5194 1.119,-0.57004 2.3153,-0.86562 3.4413,-0.95708 1.126,-0.0915 2.1816,0.0211 2.9135,0.16192 0.7319,0.14078 1.14,0.30966 1.4356,0.50675 0.2955,0.19709 0.4786,0.42233 0.4011,1.10493 -0.077,0.6826 -0.4153,1.82262 -0.6827,2.40667 -0.2674,0.58404 -0.4643,0.61219 -0.5629,0.62629 -0.099,0.0141 -0.099,0.014 -0.5982,-0.0915 z m -27.7272,11.73131 c -0.063,0.60528 -0.19,1.8157 -0.1689,2.45606 0.021,0.64036 0.1901,0.71075 0.6054,0.83038 0.4152,0.11963 1.0766,0.2885 2.0267,0.27439 0.95,-0.0141 2.1887,-0.21117 3.4623,-0.8023 1.2737,-0.59112 2.5827,-1.57636 3.8564,-3.15971 1.2737,-1.58335 2.5123,-3.76495 3.5327,-6.0169 1.0204,-2.25195 1.8226,-4.57422 2.2871,-6.23503 0.4645,-1.66081 0.5911,-2.6601 0.5631,-3.23009 -0.028,-0.57 -0.211,-0.71077 -0.7951,-0.79531 -0.5841,-0.0845 -1.5694,-0.11271 -2.2169,0.0562 -0.6475,0.16888 -0.9572,0.53486 -1.4639,1.78053 -0.5067,1.24568 -1.2104,3.37088 -1.5834,4.51095 -0.3729,1.14007 -0.4151,1.29484 -0.4784,1.28793 -0.063,-0.007 -0.1477,-0.17594 -0.6404,-1.42858 -0.4926,-1.25264 -1.3934,-3.58905 -1.9563,-4.78546 -0.5629,-1.19641 -0.7882,-1.25274 -1.4919,-1.2035 -0.7037,0.0492 -1.886,0.20406 -2.5194,0.37998 -0.6335,0.17593 -0.718,0.3731 -0.2535,1.75954 0.4646,1.38645 1.4779,3.96205 2.1887,5.61584 0.7108,1.65378 1.119,2.38561 1.4357,2.8782 0.3167,0.49259 0.5419,0.74605 0.6544,0.94306 0.1125,0.19702 0.1125,0.33776 -0.092,0.76699 -0.2041,0.42924 -0.6122,1.14703 -1.0626,1.63259 -0.4504,0.48556 -0.9429,0.73885 -1.4988,0.82332 -0.556,0.0845 -1.1752,4e-5 -1.7452,-0.26026 -0.57,-0.2603 -1.0909,-0.69668 -1.4216,-0.88678 -0.3308,-0.1901 -0.4716,-0.13378 -0.6335,0.27446 -0.1619,0.40824 -0.3449,1.16828 -0.4363,1.54824 -0.091,0.37995 -0.091,0.38 -0.1548,0.98529 z m -11.0417,-2.22385 c 0,-1.53406 0,-4.60234 -0.014,-7.12173 -0.014,-2.51939 -0.042,-4.4898 0.078,-5.57362 0.1197,-1.08383 0.3872,-1.2809 0.9924,-1.40054 0.6053,-0.11963 1.5484,-0.16186 2.2028,0.007 0.6545,0.16899 1.0204,0.54898 1.2456,0.90795 0.2251,0.35898 0.3096,0.69668 0.4151,0.80918 0.1056,0.1125 0.2322,-1.1e-4 0.7108,-0.33088 0.4786,-0.33078 1.3089,-0.87964 2.1816,-1.28783 0.8727,-0.4082 1.7875,-0.67557 2.3716,-0.78815 0.5842,-0.11258 0.8375,-0.0704 1.0556,0.14084 0.2182,0.21121 0.4012,0.59127 0.6615,1.36537 0.2604,0.7741 0.5982,1.94228 0.7037,2.54737 0.1056,0.60509 -0.021,0.64732 -0.3869,0.63327 -0.3659,-0.014 -0.9712,-0.0844 -1.7946,0.0915 -0.8235,0.17591 -1.8649,0.59811 -2.6883,1.18222 -0.8235,0.58412 -1.4287,1.33016 -1.9073,2.15354 -0.4785,0.82338 -0.8304,1.72419 -1.0274,2.69539 -0.197,0.97119 -0.2393,2.01269 -0.2181,2.95574 0.021,0.94304 0.1056,1.78747 0.042,2.23072 -0.063,0.44324 -0.2744,0.48547 -0.9922,0.49955 -0.7178,0.0141 -1.9423,-3e-5 -2.632,-0.0352 -0.6897,-0.0352 -0.8444,-0.0914 -0.9219,-0.11963 -0.078,-0.0282 -0.078,-0.0281 -0.078,-1.56219 z" /></g></g></svg>
